<svg width="200" height="200" viewBox="0 0 200 200" fill="none" xmlns="http://www.w3.org/2000/svg">
  <defs>
    <linearGradient id="catGrad2" x1="0%" y1="0%" x2="100%" y2="100%">
      <stop offset="0%" style="stop-color:#c9e4ca;stop-opacity:1" />
      <stop offset="50%" style="stop-color:#90c9a7;stop-opacity:1" />
      <stop offset="100%" style="stop-color:#55a378;stop-opacity:1" />
    </linearGradient>
  </defs>
  
  <!-- Background circle -->
  <circle cx="100" cy="100" r="95" fill="#f5f1ed" stroke="#90c9a7" stroke-width="2"/>
  
  <!-- Decorative elements -->
  <circle cx="30" cy="30" r="3" fill="#90c9a7" opacity="0.3"/>
  <circle cx="170" cy="170" r="3" fill="#90c9a7" opacity="0.3"/>
  
  <!-- Droplet/Water Drop Perfume Bottle -->
  <g transform="translate(55, 25)">
    <!-- Cap -->
    <rect x="35" y="0" width="30" height="12" rx="2" fill="#55a378"/>
    
    <!-- Neck -->
    <path d="M 40 12 L 39 28 Q 39 32 40 34 L 70 34 Q 71 32 71 28 L 70 12 Z" fill="url(#catGrad2)" stroke="#55a378" stroke-width="1"/>
    
    <!-- Teardrop/droplet body -->
    <path d="M 40 34 Q 35 50 34 70 Q 33 95 45 105 L 65 105 Q 77 95 76 70 Q 75 50 70 34 Z" fill="url(#catGrad2)" stroke="#55a378" stroke-width="1.5"/>
    
    <!-- Liquid -->
    <path d="M 40 65 Q 35 80 34 90 Q 33 95 45 105 L 65 105 Q 77 95 76 90 Q 75 80 70 65 Z" fill="#90c9a7" opacity="0.4"/>
    
    <!-- Highlight -->
    <ellipse cx="48" cy="50" rx="6" ry="30" fill="white" opacity="0.25"/>
  </g>
  
  <!-- Text label -->
  <text x="100" y="180" font-family="Poppins, sans-serif" font-size="14" font-weight="600" fill="#55a378" text-anchor="middle" letter-spacing="1">
    LIGHT & FRESH
  </text>
</svg>
